<svg width="24" height="24" viewBox="0 0 24 24" fill="none" xmlns="http://www.w3.org/2000/svg">
<path d="M19.0711 19.0711C19.8521 19.8521 19.8598 21.1348 18.96 21.7754C17.5846 22.7546 16.0117 23.4371 14.3411 23.7694C12.0133 24.2324 9.60051 23.9948 7.4078 23.0866C5.21509 22.1783 3.34094 20.6402 2.02236 18.6668C0.703788 16.6935 1.46173e-07 14.3734 0 12C-1.46173e-07 9.62663 0.703787 7.30655 2.02236 5.33316C3.34094 3.35977 5.21508 1.8217 7.4078 0.913446C9.60051 0.00519429 12.0133 -0.232446 14.3411 0.230576C16.0117 0.56288 17.5846 1.24536 18.96 2.2246C19.8598 2.86524 19.8521 4.14788 19.0711 4.92893L17.6569 6.34315C16.8758 7.12419 15.6145 7.08521 14.6209 6.60271C14.1627 6.38018 13.6755 6.21574 13.1705 6.11529C12.0067 5.88378 10.8003 6.0026 9.7039 6.45672C8.60754 6.91085 7.67047 7.67988 7.01118 8.66658C6.35189 9.65327 6 10.8133 6 12C6 13.1867 6.35189 14.3467 7.01118 15.3334C7.67047 16.3201 8.60754 17.0892 9.7039 17.5433C10.8003 17.9974 12.0067 18.1162 13.1705 17.8847C13.6755 17.7843 14.1627 17.6198 14.6209 17.3973C15.6145 16.9148 16.8758 16.8758 17.6569 17.6569L19.0711 19.0711Z" fill="#2772F0"/>
<circle cx="12" cy="12" r="3.75" fill="#081131"/>
</svg>
