<svg width="512" height="512" viewBox="0 0 512 512" fill="none" xmlns="http://www.w3.org/2000/svg">
<g clip-path="url(#clip0_8_2840)">
<path d="M406.85 406.85C423.511 423.512 423.676 450.876 404.48 464.542C375.138 485.432 341.583 499.992 305.943 507.081C256.284 516.958 204.811 511.889 158.033 492.514C111.255 473.137 71.2734 440.324 43.1437 398.225C15.0141 356.128 3.11836e-06 306.633 0 256C-3.11836e-06 205.368 15.0141 155.873 43.1437 113.774C71.2734 71.6752 111.255 38.8631 158.033 19.487C204.811 0.110929 256.284 -4.95873 305.943 4.91907C341.583 12.0082 375.138 26.5678 404.48 47.4583C423.676 61.1252 423.511 88.4882 406.85 105.151L376.681 135.321C360.017 151.983 333.109 151.151 311.913 140.858C302.138 136.111 291.744 132.603 280.971 130.46C256.143 125.521 230.406 128.056 207.017 137.743C183.628 147.432 163.637 163.838 149.572 184.887C135.507 205.937 128 230.684 128 256C128 281.316 135.507 306.063 149.572 327.113C163.637 348.162 183.628 364.57 207.017 374.257C230.406 383.945 256.143 386.479 280.971 381.54C291.744 379.399 302.138 375.889 311.913 371.143C333.109 360.849 360.017 360.017 376.681 376.681L406.85 406.85Z" fill="#2772F0"/>
<path d="M256 336C300.183 336 336 300.183 336 256C336 211.817 300.183 176 256 176C211.817 176 176 211.817 176 256C176 300.183 211.817 336 256 336Z" fill="#081131"/>
</g>
<defs>
<clipPath id="clip0_8_2840">
<rect width="512" height="512" fill="white"/>
</clipPath>
</defs>
</svg>
